<svg version="1.1" xmlns="http://www.w3.org/2000/svg" xmlns:xlink="http://www.w3.org/1999/xlink" width="48px" height="48px" viewBox="0,0,256,256"><defs><linearGradient x1="23.98724" y1="3.99595" x2="23.98724" y2="43.99415" gradientUnits="userSpaceOnUse" id="color-1"><stop offset="0" stop-color="#a116f5"></stop><stop offset="1" stop-color="#cc81f9"></stop></linearGradient></defs><g fill="none" fill-rule="nonzero" stroke="none" stroke-width="1" stroke-linecap="butt" stroke-linejoin="miter" stroke-miterlimit="10" stroke-dasharray="" stroke-dashoffset="0" font-family="none" font-weight="none" font-size="none" text-anchor="none" style="mix-blend-mode: normal"><g transform="scale(5.33333,5.33333)"><path d="M38.142,38.142c-7.81,7.81 -20.474,7.81 -28.284,0c-7.81,-7.81 -7.81,-20.474 0,-28.284c7.81,-7.81 20.474,-7.81 28.284,0c7.81,7.81 7.81,20.474 0,28.284z" fill="url(#color-1)"></path><path d="M20,24v8c0,1.105 0.895,2 2,2h4c1.105,0 2,-0.895 2,-2v-8h3.648c1.336,0 2.006,-1.616 1.061,-2.561l-7.295,-7.295c-0.781,-0.781 -2.047,-0.781 -2.828,0l-7.295,7.295c-0.945,0.945 -0.276,2.561 1.061,2.561z" fill="#000000" opacity="0.05"></path><path d="M20.5,23.5v8.5c0,0.828 0.672,1.5 1.5,1.5h4c0.828,0 1.5,-0.672 1.5,-1.5v-8.5h4.021c0.938,0 1.408,-1.134 0.745,-1.798l-7.129,-7.13c-0.627,-0.627 -1.644,-0.627 -2.271,0l-7.129,7.13c-0.663,0.663 -0.194,1.798 0.745,1.798z" fill="#000000" opacity="0.07"></path><path d="M16.607,23h4.393v9c0,0.552 0.448,1 1,1h4c0.552,0 1,-0.448 1,-1v-9h4.393c0.54,0 0.81,-0.653 0.428,-1.034l-6.964,-6.964c-0.473,-0.473 -1.241,-0.473 -1.714,0l-6.964,6.964c-0.382,0.381 -0.112,1.034 0.428,1.034z" fill="#ffffff"></path></g></g></svg>